<svg width="24" height="24" viewBox="0 0 24 24" fill="none" xmlns="http://www.w3.org/2000/svg">
<g id="usdt">
<path id="Ellipse 13 (Stroke)" fill-rule="evenodd" clip-rule="evenodd" d="M17.9987 11.0109C17.9999 11.0052 18 11.0021 18 11C18 10.9979 17.9999 10.9948 17.9987 10.9891C17.9975 10.9832 17.9945 10.9709 17.9865 10.9514C17.9703 10.9119 17.9317 10.8379 17.8444 10.7347C17.662 10.5191 17.3196 10.239 16.7624 9.96043C15.6469 9.40269 13.966 9 12 9C10.034 9 8.35305 9.40269 7.23757 9.96043C6.68039 10.239 6.33804 10.5191 6.15562 10.7347C6.06834 10.8379 6.02968 10.9119 6.01352 10.9514C6.00555 10.9709 6.00248 10.9832 6.00128 10.9891C6.00013 10.9948 6 10.9979 6 11C6 11.0021 6.00013 11.0052 6.00128 11.0109C6.00248 11.0168 6.00555 11.0291 6.01352 11.0486C6.02968 11.0881 6.06834 11.1621 6.15562 11.2653C6.33804 11.4809 6.68039 11.761 7.23757 12.0396C8.35305 12.5973 10.034 13 12 13C13.966 13 15.6469 12.5973 16.7624 12.0396C17.3196 11.761 17.662 11.4809 17.8444 11.2653C17.9317 11.1621 17.9703 11.0881 17.9865 11.0486C17.9945 11.0291 17.9975 11.0168 17.9987 11.0109ZM12 15C16.4183 15 20 13.2091 20 11C20 8.79086 16.4183 7 12 7C7.58172 7 4 8.79086 4 11C4 13.2091 7.58172 15 12 15Z" fill="#87888A"/>
<path id="Vector 102 (Stroke)" fill-rule="evenodd" clip-rule="evenodd" d="M11 5H4V3H20V5H13V12H11V5ZM11 20V13H13V20H11Z" fill="#87888A"/>
</g>
</svg>
